<svg xmlns="http://www.w3.org/2000/svg" width="48" height="48" viewBox="0 0 48 48"><g fill="#FFF"><path d="M16.491 20.125l-2.512 5.548-.475-5.548h-2.768l1.389 8.35h2.756l4.366-8.35zM24.436 22.369l-1.628 3.791-.28-3.791h-2.034l-1.616 3.791h-.024l-.255-3.791h-.195l-1.676 3.207.441 2.898h2.36l1.5-3.571.325 3.571h2.36l3.023-6.105zM26.361 28.474h2.407l1.081-6.093h-2.431zM36.729 22.637c-.356-.287-.837-.43-1.441-.43-.845 0-1.604.38-2.278 1.139l.186-.977h-2.221l-1.07 6.104h2.43l.548-3.116c.107-.512.243-.837.406-.977.186-.179.434-.267.745-.267.456 0 .686.24.686.721l-.012.209-.012.186-.569 3.244h2.406l.662-3.674c.047-.255.07-.5.07-.732-.001-.666-.179-1.143-.536-1.43z"/><circle cx="28.63" cy="20.687" r="1.162"/></g></svg>